<?xml version="1.0" encoding="utf-8"?>
<!-- Generator: Adobe Illustrator 16.0.0, SVG Export Plug-In . SVG Version: 6.00 Build 0)  -->
<!DOCTYPE svg PUBLIC "-//W3C//DTD SVG 1.1 Tiny//EN" "http://www.w3.org/Graphics/SVG/1.1/DTD/svg11-tiny.dtd">
<svg version="1.1" baseProfile="tiny" id="Calque_1"
	 xmlns="http://www.w3.org/2000/svg" xmlns:xlink="http://www.w3.org/1999/xlink" x="0px" y="0px" width="24px" height="24px"
	 viewBox="0 0 24 24" xml:space="preserve">
<path display="none" fill="none" d="M0,0h24v24H0V0z"/>
<path display="none" fill="#FFDFA6" d="M20,12c0-1.1,0.9-2,2-2V6c0-1.1-0.9-2-2-2H4C2.9,4,2.01,4.9,2.01,6v4C3.11,10,4,10.9,4,12
	c0,1.1-0.89,2-2,2v4c0,1.1,0.9,2,2,2h16c1.1,0,2-0.9,2-2v-4C20.9,14,20,13.1,20,12z M15.58,16.8L12,14.5l-3.58,2.3l1.08-4.12
	L6.21,9.99l4.24-0.25L12,5.8l1.54,3.95L17.779,10l-3.289,2.689L15.58,16.8z"/>
<path fill-rule="evenodd" fill="#FFDFA6" d="M2.779,2.792c6.147,0,12.294,0,18.441,0c-0.013,0.176-0.032,0.351-0.032,0.527
	c0,5.804-0.003,11.606,0.009,17.41c0,0.381-0.103,0.485-0.481,0.479c-1.555-0.022-3.112-0.007-4.669-0.01
	c-0.144,0-0.287-0.016-0.448-0.022c-0.01-0.166-0.018-0.284-0.018-0.408c-0.004-2.06,0.005-4.122-0.013-6.185
	c-0.004-0.374,0.122-0.466,0.472-0.453c0.623,0.025,1.25,0.006,1.905,0.006c0.127-1.009,0.252-1.973,0.386-3.004
	c-0.956,0-1.832,0-2.75,0c0-0.699-0.01-1.334,0.001-1.976c0.007-0.575,0.374-0.929,0.956-0.936c0.494-0.003,0.983-0.006,1.478,0.003
	c0.252,0.007,0.368-0.063,0.362-0.345c-0.015-0.68-0.015-1.363,0-2.046c0.006-0.265-0.085-0.364-0.352-0.361
	c-0.763,0.016-1.531-0.025-2.294,0.016c-1.901,0.099-3.063,1.539-3.145,2.924c-0.047,0.789-0.047,1.581-0.053,2.369
	c0,0.259-0.075,0.367-0.352,0.357c-0.561-0.019-1.121,0.003-1.678-0.009c-0.252-0.003-0.378,0.067-0.374,0.348
	c0.013,0.778,0.009,1.555,0,2.334c-0.001,0.249,0.089,0.338,0.335,0.332c0.533-0.013,1.065,0.016,1.598-0.013
	c0.35-0.017,0.479,0.083,0.476,0.456c-0.018,2.05-0.018,4.097,0,6.146c0,0.377-0.116,0.476-0.49,0.476
	c-2.91-0.013-5.816-0.02-8.726,0C2.912,21.211,2.8,21.105,2.803,20.69C2.817,14.899,2.811,9.11,2.811,3.319
	C2.811,3.143,2.792,2.968,2.779,2.792z"/>
</svg>
