<?xml version="1.0" encoding="UTF-8" standalone="no"?>
<svg
   xmlns:dc="http://purl.org/dc/elements/1.1/"
   xmlns:cc="http://creativecommons.org/ns#"
   xmlns:rdf="http://www.w3.org/1999/02/22-rdf-syntax-ns#"
   xmlns:svg="http://www.w3.org/2000/svg"
   xmlns="http://www.w3.org/2000/svg"
   xmlns:sodipodi="http://sodipodi.sourceforge.net/DTD/sodipodi-0.dtd"
   xmlns:inkscape="http://www.inkscape.org/namespaces/inkscape"
   width="48"
   height="48"
   version="1.1"
   id="svg4"
   sodipodi:docname="photo.svg"
   inkscape:version="0.92.4 (5da689c313, 2019-01-14)">
  <metadata
     id="metadata10">
    <rdf:RDF>
      <cc:Work
         rdf:about="">
        <dc:format>image/svg+xml</dc:format>
        <dc:type
           rdf:resource="http://purl.org/dc/dcmitype/StillImage" />
      </cc:Work>
    </rdf:RDF>
  </metadata>
  <defs
     id="defs8" />
  <sodipodi:namedview
     pagecolor="#ffffff"
     bordercolor="#666666"
     borderopacity="1"
     objecttolerance="10"
     gridtolerance="10"
     guidetolerance="10"
     inkscape:pageopacity="0"
     inkscape:pageshadow="2"
     inkscape:window-width="1920"
     inkscape:window-height="1007"
     id="namedview6"
     showgrid="false"
     inkscape:zoom="19.666667"
     inkscape:cx="21.301051"
     inkscape:cy="23.975268"
     inkscape:window-x="0"
     inkscape:window-y="0"
     inkscape:window-maximized="1"
     inkscape:current-layer="svg4" />
  <path
     d="M6 12a2 2 0 0 0-2 2v24a2 2 0 0 0 2 2h36a2 2 0 0 0 2-2V14a2 2 0 0 0-2-2h-9l-2-5H17l-2 5zm18 4a10 10 0 1 1-.1 0zm0 5a5 5 0 1 0 .1 0z"
     id="path2"
     style="fill:#ffdfa6;fill-opacity:0.9849624" />
  <path
     style="fill:#ffdfa6;fill-opacity:0;stroke-width:0.05084746"
     d="M 5.4887244,39.899329 C 4.782169,39.709009 4.2144538,39.106734 4.0663629,38.39038 4.0277032,38.203373 4.0154265,34.489527 4.0248925,25.845071 4.0375772,14.261201 4.0434114,13.552445 4.1278579,13.336597 4.3198645,12.84582 4.8443654,12.321351 5.3349493,12.12958 c 0.211568,-0.0827 0.5854746,-0.0905 4.9609817,-0.103487 l 4.732169,-0.01404 0.990625,-2.4775576 0.990624,-2.4775577 6.989072,-0.012263 6.989071,-0.012263 0.991525,2.4893695 0.991526,2.4893688 4.728813,0.01442 4.728814,0.01442 0.305084,0.122468 c 0.421552,0.169221 0.92865,0.676319 1.097871,1.09787 l 0.122468,0.305085 0.01345,12.330509 c 0.01331,12.200468 0.01238,12.334048 -0.08815,12.66617 -0.174585,0.576797 -0.60828,1.04778 -1.181054,1.282598 l -0.269666,0.110554 -18.330509,0.0095 C 8.0813,39.973123 5.7320023,39.964835 5.4887244,39.899329 Z M 25.224352,35.933421 c 2.945339,-0.38083 5.516255,-2.004053 7.159807,-4.520553 0.587423,-0.899424 1.096222,-2.125642 1.342208,-3.234754 1.018185,-4.590843 -1.288311,-9.27439 -5.548621,-11.26697 -2.443878,-1.14302 -5.377202,-1.230956 -7.893644,-0.236639 -4.603194,1.818854 -7.195714,6.714646 -6.108235,11.534973 0.666354,2.95366 2.648169,5.456556 5.377407,6.791295 1.741263,0.851568 3.747018,1.181428 5.671078,0.932648 z"
     id="path817"
     inkscape:connector-curvature="0" />
  <path
     style="fill:#ffdfa6;fill-opacity:0;stroke-width:0.05084746"
     d="M 5.4887244,39.899329 C 4.782169,39.709009 4.2144538,39.106734 4.0663629,38.39038 4.0277032,38.203373 4.0154265,34.489527 4.0248925,25.845071 4.0375772,14.261201 4.0434114,13.552445 4.1278579,13.336597 4.3198645,12.84582 4.8443654,12.321351 5.3349493,12.12958 c 0.211568,-0.0827 0.5854746,-0.0905 4.9609817,-0.103487 l 4.732169,-0.01404 0.990625,-2.4775576 0.990624,-2.4775577 6.989072,-0.012263 6.989071,-0.012263 0.991525,2.4893695 0.991526,2.4893688 4.728813,0.01442 4.728814,0.01442 0.305084,0.122468 c 0.421552,0.169221 0.92865,0.676319 1.097871,1.09787 l 0.122468,0.305085 0.01345,12.330509 c 0.01331,12.200468 0.01238,12.334048 -0.08815,12.66617 -0.174585,0.576797 -0.60828,1.04778 -1.181054,1.282598 l -0.269666,0.110554 -18.330509,0.0095 C 8.0813,39.973123 5.7320023,39.964835 5.4887244,39.899329 Z M 25.224352,35.933421 c 2.945339,-0.38083 5.516255,-2.004053 7.159807,-4.520553 0.587423,-0.899424 1.096222,-2.125642 1.342208,-3.234754 1.018185,-4.590843 -1.288311,-9.27439 -5.548621,-11.26697 -2.443878,-1.14302 -5.377202,-1.230956 -7.893644,-0.236639 -4.603194,1.818854 -7.195714,6.714646 -6.108235,11.534973 0.666354,2.95366 2.648169,5.456556 5.377407,6.791295 1.741263,0.851568 3.747018,1.181428 5.671078,0.932648 z"
     id="path819"
     inkscape:connector-curvature="0" />
  <path
     style="fill:#ffdfa6;fill-opacity:0;stroke-width:0.05084746"
     d="M 5.4887244,39.899329 C 4.782169,39.709009 4.2144538,39.106734 4.0663629,38.39038 4.0277032,38.203373 4.0154265,34.489527 4.0248925,25.845071 4.0375772,14.261201 4.0434114,13.552445 4.1278579,13.336597 4.3198645,12.84582 4.8443654,12.321351 5.3349493,12.12958 c 0.211568,-0.0827 0.5854746,-0.0905 4.9609817,-0.103487 l 4.732169,-0.01404 0.990625,-2.4775576 0.990624,-2.4775577 6.989072,-0.012263 6.989071,-0.012263 0.991525,2.4893695 0.991526,2.4893688 4.728813,0.01442 4.728814,0.01442 0.305084,0.122468 c 0.421552,0.169221 0.92865,0.676319 1.097871,1.09787 l 0.122468,0.305085 0.01345,12.330509 c 0.01331,12.200468 0.01238,12.334048 -0.08815,12.66617 -0.174585,0.576797 -0.60828,1.04778 -1.181054,1.282598 l -0.269666,0.110554 -18.330509,0.0095 C 8.0813,39.973123 5.7320023,39.964835 5.4887244,39.899329 Z M 25.224352,35.933421 c 2.945339,-0.38083 5.516255,-2.004053 7.159807,-4.520553 0.587423,-0.899424 1.096222,-2.125642 1.342208,-3.234754 1.018185,-4.590843 -1.288311,-9.27439 -5.548621,-11.26697 -2.443878,-1.14302 -5.377202,-1.230956 -7.893644,-0.236639 -4.603194,1.818854 -7.195714,6.714646 -6.108235,11.534973 0.666354,2.95366 2.648169,5.456556 5.377407,6.791295 1.741263,0.851568 3.747018,1.181428 5.671078,0.932648 z"
     id="path821"
     inkscape:connector-curvature="0" />
  <path
     style="fill:#ffdfa6;fill-opacity:0;stroke-width:0.05084746"
     d="m 23.233254,30.902813 c -2.012688,-0.362435 -3.535515,-1.789862 -4.02786,-3.775526 -0.153891,-0.620658 -0.154729,-1.636786 -0.0019,-2.248317 0.467605,-1.870507 1.85308,-3.260384 3.71068,-3.722472 0.670713,-0.166844 1.684172,-0.154412 2.378355,0.02917 2.393491,0.632991 3.969878,2.914816 3.697512,5.352158 -0.31612,2.828881 -2.997391,4.861892 -5.756834,4.364983 z"
     id="path823"
     inkscape:connector-curvature="0" />
</svg>
