<?xml version="1.0" encoding="utf-8"?>
<!-- Generator: Adobe Illustrator 16.0.0, SVG Export Plug-In . SVG Version: 6.00 Build 0)  -->
<!DOCTYPE svg PUBLIC "-//W3C//DTD SVG 1.1 Tiny//EN" "http://www.w3.org/Graphics/SVG/1.1/DTD/svg11-tiny.dtd">
<svg version="1.1" baseProfile="tiny" id="Calque_1"
	 xmlns="http://www.w3.org/2000/svg" xmlns:xlink="http://www.w3.org/1999/xlink" x="0px" y="0px" width="24px" height="24px"
	 viewBox="0 0 24 24" xml:space="preserve">
<path fill="none" d="M0,0h24v24H0V0z"/>
<path fill="#FFDFA6" d="M20,12c0-1.1,0.9-2,2-2V6c0-1.1-0.9-2-2-2H4C2.9,4,2.01,4.9,2.01,6v4C3.11,10,4,10.9,4,12c0,1.1-0.89,2-2,2
	v4c0,1.1,0.9,2,2,2h16c1.1,0,2-0.9,2-2v-4C20.9,14,20,13.1,20,12z M15.58,16.8L12,14.5l-3.58,2.3l1.08-4.12L6.21,9.99l4.24-0.25
	L12,5.8l1.54,3.95L17.779,10l-3.289,2.689L15.58,16.8z"/>
</svg>
