<?xml version="1.0" encoding="UTF-8" standalone="no"?><!DOCTYPE svg PUBLIC "-//W3C//DTD SVG 1.1//EN" "http://www.w3.org/Graphics/SVG/1.1/DTD/svg11.dtd"><svg width="100%" height="100%" viewBox="0 0 1544 199" version="1.1" xmlns="http://www.w3.org/2000/svg" xmlns:xlink="http://www.w3.org/1999/xlink" xml:space="preserve" xmlns:serif="http://www.serif.com/" style="fill-rule:evenodd;clip-rule:evenodd;stroke-linecap:round;stroke-linejoin:round;stroke-miterlimit:1.5;"><rect id="Artboard2" x="0" y="-0" width="1543.01" height="198.68" style="fill:none;"/><g><path d="M62.391,46.658c145.016,0 290.376,0.829 435.19,-0.686c88.667,-0.928 174.802,-9.186 262.938,-11.408c73.162,-1.845 148.62,-0 221.905,-0c102.257,-0 208.796,-3.122 310.751,-0c44.137,1.351 88.895,0.662 132.995,2.121c1.949,0.064 38.706,1.374 38.706,0.21" style="fill:none;stroke:#47132b;stroke-width:54.17px;"/><path d="M78.764,75.012l271.384,-0c33.288,-0 82.32,3.471 115.505,-0c213.023,-22.285 420.936,-28.269 638.284,-36.35c84.135,-3.128 170.013,-3.013 255.012,-3.013c14.145,0 79.286,-3.588 90.687,0c2.388,0.752 -15.8,1.075 -16.939,1.075c-9.158,-0 -36.198,-1.635 -41.349,1.938c-5.434,3.769 32.467,7.939 17.993,13.036c-9.676,3.407 -56.958,-1.097 -68.825,-1.097c-60.124,0 -118.473,10.478 -179.329,12.925c-44.148,1.776 -87.275,7.455 -130.715,9.675c-92.855,4.746 -187.392,4.544 -281.135,7.061c-87.918,2.36 -173.074,8.41 -261.303,10.145c-71.223,1.401 -142.82,2.863 -214.166,2.863l-105.503,-0c152.013,-0 317.902,-1.667 466.41,-13.867c76.513,-6.285 148.801,-20.949 226.953,-24.388c66.852,-2.943 144.289,1.39 211.949,1.39c47.005,-0 95.323,-4.854 142.856,-2.553c64.36,3.115 131.025,10.34 195.214,15.024c30.192,2.203 61.493,-2.608 90.121,-2.608c6.778,-0 -13.558,-0 -20.336,-0l-33.454,-0c-35.766,-0 -71.375,1.794 -106.902,1.794c-54.788,-0 -90.788,10.917 -141.944,17.627c-45.617,5.983 -98.442,6.484 -146.206,8.561c-113.059,4.917 -221.421,16.974 -330.898,27.296c-137.175,12.933 -290.063,11.967 -430.472,11.967c-64.929,-0 -129.374,-0.449 -194.082,-0.449c-12.571,0 -55.144,1.535 -62.44,-3.45c-7.908,-5.402 22.955,-6.404 29.742,-7.498c41.375,-6.667 81.789,-12.273 125.886,-16.381c93.696,-8.728 184.565,-3.017 279.531,-5.056c56.063,-1.203 113.582,-7.373 168.508,-11.452c34.319,-2.548 68.278,-4.675 102.892,-6.551c4.578,-0.248 26.844,0.127 30.433,-1.041c0.602,-0.196 -12.912,-0.338 -15.224,-0.338l-32.085,0c-25.345,0 -52.181,-0.953 -77.381,0c-101.532,3.839 -188.761,14.695 -280.837,27.44c-24.89,3.445 -52.121,8.117 -78.954,9.508c-9.5,0.493 -19.451,0.67 -28.75,1.291c-0.788,0.052 -19.181,0.373 -17.144,1.091c3.713,1.307 32.862,-0 37.102,-0c47.2,-0 92.11,-1.258 138.956,-3.052c18.903,-0.724 37.473,-2.093 56.259,-2.647c7.817,-0.23 31.011,-1.456 23.167,-1.456c-16.326,-0 -31.643,-1.335 -48.112,-1.335c-7.895,0 -31.581,0 -23.686,0c94.284,0 187.668,-0.317 281.67,-3.206c37.631,-1.157 92.093,-2.121 106.399,-7.842c4.757,-1.902 79.041,-1.277 101.131,-1.528c95.476,-1.084 192.331,1.224 287.631,-0.881c81.83,-1.807 178.715,-42.25 260.422,-15.694c1.711,0.557 -0.788,2.462 -2.108,2.764c-24.03,5.495 -60.268,4.833 -87.447,7.049c-57.297,4.672 -118.82,5.359 -174.862,11.785c-116.732,13.384 -237.647,31.787 -361.599,34.76c-9.538,0.229 -111.022,0.988 -113.335,-0.653c-7.864,-5.58 22.634,-6.428 29.93,-7.028c35.654,-2.932 70.873,-5.909 106.194,-9.408c140.876,-13.959 272.172,-18.091 401.108,-40.963c14.304,-2.538 102.781,-0.663 102.781,5.969" style="fill:none;stroke:#47132b;stroke-width:54.17px;"/><path d="M82.334,159.497c71.187,-0 164.188,5.865 233.433,-0.453c147.306,-13.44 287.926,-29.686 439.074,-38.822c67.189,-4.062 135.931,-7.571 201.915,-13.54c14.876,-1.345 49.82,-0.592 60.725,-4.518c4.021,-1.448 -8.876,-2.851 -10.019,-3.058c-5.229,-0.948 -49.228,-0.677 -49.228,-1.223" style="fill:none;stroke:#47132b;stroke-width:54.17px;"/><path d="M1314.03,152.358c-138.647,0 -282.432,-4.263 -420.909,0c-73.041,2.249 -159.173,3.143 -232.096,-0.377c-59.078,-2.85 -120.544,-0.492 -180.021,-0.492c-28.654,-0 -66.299,-2.424 -94.305,-0c-10.586,0.916 -24.125,4.59 -34.412,4.59c-4.438,0 29.489,-6.955 29.82,-6.988" style="fill:none;stroke:#47132b;stroke-width:54.17px;"/><path d="M1456.73,144.051l-252.401,0c-30.748,0 -63.175,-2.171 -92.621,-5.028c-18.585,-1.803 -27.117,-4.812 -8.635,-7.792c10.203,-1.644 19.926,-3.243 31.094,-4.02c14.665,-1.02 31.494,-1.695 46.382,-1.966c73.964,-1.346 138.131,3.782 210.784,3.782c22.499,0 45.142,-0.487 67.394,-0.487c9.488,0 18.416,-0.482 27.949,-0.482c4.152,0 16.608,0 12.456,0c-28.152,0 -12.651,-14.767 -23.592,-18.812c-9.232,-3.413 -25.421,3.1 -38.627,3.871c-41.318,2.415 -89.25,0 -131.029,0c-97.479,0 -216.097,6.223 -307.15,0.637c-23.941,-1.469 -44.921,-7.12 -69.092,-8.55c-47.349,-2.802 -100.829,-0.488 -148.77,-0.488c-33.16,0 -55.48,-4.367 -86.503,-7.415c-48.998,-4.813 -99.492,-9.442 -147.213,-15.755c-25.874,-3.423 -52.136,-11.38 -80.511,-11.38c-12.731,0 -59.218,-8.767 -63.493,-2.796" style="fill:none;stroke:#47132b;stroke-width:54.17px;"/><path d="M138.671,34.697c210.573,-0 422.534,-4.048 633.691,-4.048c99.136,-0 251.754,0.432 341.263,13.933" style="fill:none;stroke:#47132b;stroke-width:54.17px;"/><path d="M1049.94,155.055c-67.326,-0 -123.167,-3.66 -187.885,-5.948c-103.185,-3.649 -213.682,-0.725 -316.916,-0.725c-70.93,-0 -160.329,-5.511 -222.376,9.043" style="fill:none;stroke:#47132b;stroke-width:54.17px;"/></g></svg>