<?xml version="1.0" encoding="UTF-8"?>
<svg xmlns="http://www.w3.org/2000/svg" xmlns:xlink="http://www.w3.org/1999/xlink" width="299.4pt" height="299.04pt" viewBox="0 0 299.4 299.04" version="1.1">
<defs>
<clipPath id="clip1">
  <path d="M 189 0 L 299.398438 0 L 299.398438 96 L 189 96 Z M 189 0 "/>
</clipPath>
<clipPath id="clip2">
  <path d="M 0 81 L 299.398438 81 L 299.398438 299.039063 L 0 299.039063 Z M 0 81 "/>
</clipPath>
</defs>
<g id="surface1">
<path style=" stroke:none;fill-rule:evenodd;fill:rgb(94.898987%,54.098511%,35.699463%);fill-opacity:1;" d="M 54.25 13.679688 C 51.703125 14.09375 48.023438 15.453125 45.371094 16.5625 C 49.425781 17.066406 53.503906 17.546875 57.371094 18.242188 C 57.03125 23.261719 57.59375 29.183594 56.652344 33.601563 C 51.167969 33.085938 45 33.253906 39.851563 32.402344 C 40.097656 27.527344 40.457031 22.765625 40.8125 18 C 35.34375 19.816406 29.441406 21.191406 24.492188 23.519531 C 29.945313 27.375 35.589844 31.058594 41.289063 35.039063 C 42.828125 36.113281 45.519531 38.757813 47.050781 38.882813 C 48.761719 39.019531 51.644531 36.921875 53.289063 36 C 59.691406 32.421875 64.988281 28.722656 69.609375 24.242188 C 64.261719 20.949219 59.671875 16.898438 54.25 13.679688 M 0.25 0 L 90.011719 0 C 90.605469 0.753906 89.773438 1.457031 89.53125 2.160156 C 87.730469 7.371094 83.25 16.566406 84.25 23.039063 C 84.777344 26.464844 86.640625 30.230469 87.851563 34.082031 C 90.132813 41.339844 92.554688 48.855469 94.8125 56.402344 C 95.980469 60.304688 97.675781 64.070313 97.929688 67.921875 C 95.453125 71.097656 90.625 70.464844 86.890625 71.519531 C 83.6875 72.425781 79.382813 74.480469 78.25 77.039063 C 77.507813 78.726563 77.175781 83.21875 77.769531 85.199219 C 78.214844 86.683594 80.816406 86.902344 80.890625 88.5625 C 80.957031 90.019531 78.539063 91.015625 77.050781 92.160156 C 75.394531 93.433594 74.371094 94.507813 73.210938 95.519531 C 70.972656 97.476563 66.027344 100.195313 66.25 102.960938 C 66.515625 106.230469 72.519531 106.125 73.210938 109.199219 C 73.296875 112.011719 72.007813 113.4375 71.050781 115.199219 C 46.496094 115.519531 22.910156 115.390625 0.0117188 113.519531 L 0.0117188 0.722656 C -0.0117188 0.378906 -0.03125 0.0390625 0.25 0 "/>
<path style=" stroke:none;fill-rule:evenodd;fill:rgb(94.898987%,54.098511%,35.699463%);fill-opacity:1;" d="M 135.371094 28.082031 C 137.800781 29.972656 140.21875 31.871094 143.53125 32.882813 C 142.769531 29.804688 142.277344 26.453125 140.890625 24 C 138.574219 24.886719 136.761719 26.269531 135.371094 28.082031 M 157.929688 30.722656 C 155.003906 31.714844 152.183594 32.8125 149.769531 34.320313 C 156.703125 33.976563 161.59375 31.582031 164.410156 27.121094 C 161.8125 25.796875 159.242188 24.449219 156.25 23.519531 C 156.550781 26.183594 157.523438 28.167969 157.929688 30.722656 M 106.328125 0 L 127.210938 0 C 127.078125 8.1875 125.5625 14.996094 125.53125 23.28125 C 130.191406 21.492188 134.78125 19.578125 139.691406 17.519531 C 141.253906 16.867188 142.863281 15.726563 144.25 15.601563 C 146.433594 15.402344 149.894531 16.617188 152.410156 17.28125 C 159.929688 19.265625 167.390625 22.230469 172.8125 26.160156 C 170.972656 29.972656 167.382813 33.269531 163.210938 36 C 159.480469 38.445313 154.832031 41.621094 150.25 42.242188 C 146.796875 42.707031 142.878906 41.488281 139.449219 40.800781 C 136.183594 40.144531 133.035156 39.035156 130.089844 38.160156 C 127.996094 40.808594 128.464844 45.222656 128.648438 49.199219 C 128.839844 53.289063 129.042969 57.632813 128.890625 61.441406 C 128.832031 62.898438 128.390625 64.632813 128.648438 66 C 128.929688 67.480469 130.511719 69.605469 131.53125 71.519531 C 134.277344 76.6875 137.675781 82.800781 140.648438 87.121094 C 140.070313 94.296875 142.902344 102.121094 143.289063 109.921875 C 130.765625 111.714844 117.425781 112.695313 104.171875 113.761719 C 105.960938 99.609375 106.089844 83.890625 106.089844 67.921875 C 106.089844 51.949219 107.164063 35.5 106.089844 20.160156 C 105.675781 14.230469 105.628906 7.597656 106.089844 0.722656 C 106.070313 0.378906 106.050781 0.0390625 106.328125 0 "/>
<g clip-path="url(#clip1)" clip-rule="nonzero">
<path style=" stroke:none;fill-rule:evenodd;fill:rgb(94.898987%,54.098511%,35.699463%);fill-opacity:1;" d="M 227.050781 20.882813 C 230.878906 23.691406 235.753906 25.457031 240.011719 27.839844 C 239.777344 23.433594 240.527344 18.046875 239.53125 14.402344 C 235.398438 16.589844 231.402344 18.914063 227.050781 20.882813 M 248.652344 9.359375 C 246.035156 11.226563 242.644531 12.316406 240.25 14.402344 C 245.347656 14.742188 250.292969 15.238281 255.128906 15.839844 C 255.21875 19.671875 256.15625 23.933594 255.609375 27.601563 C 250.945313 27.976563 245.445313 27.515625 241.449219 28.5625 C 244.375 30.113281 247.402344 31.566406 250.328125 33.121094 C 255.742188 28.855469 260.851563 24.28125 266.410156 20.160156 C 260.8125 16.242188 254.707031 12.824219 248.652344 9.359375 M 209.289063 0 L 299.050781 0 L 299.050781 33.839844 C 299.050781 37.183594 299.847656 42.234375 299.050781 45.121094 C 298.441406 47.324219 292.734375 52.429688 290.890625 54.242188 C 271.152344 73.664063 242.453125 86.960938 213.128906 95.761719 C 212.609375 91.710938 212.613281 89.203125 210.972656 86.402344 C 210.039063 84.8125 207.652344 84.140625 207.371094 83.039063 C 206.453125 79.453125 213.800781 76.878906 213.851563 73.441406 C 212.152344 71.359375 209.941406 70.867188 207.371094 69.601563 C 205.625 68.738281 201.664063 67.542969 201.132813 65.761719 C 200.363281 63.21875 204.402344 62.015625 204.011719 59.28125 C 203.722656 57.273438 199.578125 56.25 197.53125 55.679688 C 194.597656 54.867188 191.789063 54.660156 190.089844 53.039063 C 189.160156 48.34375 193.796875 45.800781 196.089844 42.722656 C 201.839844 34.996094 206.636719 25.699219 211.691406 16.320313 C 212.722656 14.40625 214.519531 12.386719 214.570313 10.800781 C 214.710938 6.402344 210.148438 4.066406 209.289063 0 "/>
</g>
<path style=" stroke:none;fill-rule:evenodd;fill:rgb(94.898987%,54.098511%,35.699463%);fill-opacity:1;" d="M 131.53125 4.320313 C 149.121094 4.488281 161.972656 9.398438 172.328125 16.800781 C 166.671875 18.941406 161.984375 15.882813 156.730469 13.679688 C 149.910156 10.820313 143.828125 7.394531 133.449219 8.882813 C 132.789063 7.382813 131.941406 6.066406 131.53125 4.320313 "/>
<path style=" stroke:none;fill-rule:evenodd;fill:rgb(100%,100%,100%);fill-opacity:1;" d="M 266.410156 20.160156 C 260.851563 24.28125 255.746094 28.855469 250.328125 33.121094 C 247.402344 31.566406 244.378906 30.113281 241.449219 28.5625 C 245.445313 27.515625 250.945313 27.976563 255.609375 27.601563 C 256.15625 23.933594 255.21875 19.671875 255.128906 15.839844 C 250.292969 15.238281 245.347656 14.742188 240.25 14.402344 C 242.644531 12.316406 246.035156 11.226563 248.648438 9.359375 C 254.710938 12.824219 260.8125 16.242188 266.410156 20.160156 "/>
<path style=" stroke:none;fill-rule:evenodd;fill:rgb(100%,100%,100%);fill-opacity:1;" d="M 69.609375 24.242188 C 64.988281 28.722656 59.691406 32.421875 53.289063 36 C 51.644531 36.921875 48.761719 39.019531 47.050781 38.882813 C 45.519531 38.757813 42.828125 36.113281 41.289063 35.039063 C 35.585938 31.058594 29.945313 27.375 24.492188 23.519531 C 29.441406 21.191406 35.34375 19.816406 40.808594 18 C 40.457031 22.765625 40.097656 27.527344 39.851563 32.402344 C 45 33.253906 51.167969 33.085938 56.652344 33.601563 C 57.59375 29.183594 57.03125 23.261719 57.371094 18.242188 C 53.503906 17.546875 49.425781 17.066406 45.371094 16.5625 C 48.023438 15.453125 51.703125 14.09375 54.25 13.679688 C 59.671875 16.898438 64.261719 20.949219 69.609375 24.242188 "/>
<path style=" stroke:none;fill-rule:evenodd;fill:rgb(100%,100%,100%);fill-opacity:1;" d="M 239.53125 14.402344 C 240.523438 18.046875 239.777344 23.433594 240.007813 27.839844 C 235.753906 25.457031 230.878906 23.691406 227.050781 20.882813 C 231.402344 18.914063 235.398438 16.589844 239.53125 14.402344 "/>
<path style=" stroke:none;fill-rule:evenodd;fill:rgb(100%,100%,100%);fill-opacity:1;" d="M 156.25 23.519531 C 159.242188 24.449219 161.8125 25.796875 164.410156 27.121094 C 161.59375 31.582031 156.703125 33.976563 149.769531 34.320313 C 152.183594 32.8125 155.003906 31.714844 157.929688 30.722656 C 157.523438 28.167969 156.550781 26.183594 156.25 23.519531 "/>
<path style=" stroke:none;fill-rule:evenodd;fill:rgb(100%,100%,100%);fill-opacity:1;" d="M 140.890625 24 C 142.277344 26.453125 142.769531 29.804688 143.53125 32.882813 C 140.21875 31.871094 137.800781 29.972656 135.371094 28.082031 C 136.761719 26.273438 138.574219 24.886719 140.890625 24 "/>
<path style=" stroke:none;fill-rule:evenodd;fill:rgb(94.898987%,54.098511%,35.699463%);fill-opacity:1;" d="M 190.089844 84.480469 C 188.570313 89.203125 184.636719 91.507813 183.851563 96.960938 C 173.0625 96.308594 160.929688 97.003906 151.449219 95.039063 C 151.386719 91.535156 152.058594 88.769531 152.890625 86.160156 C 151.765625 84.964844 149.945313 84.464844 148.8125 83.28125 C 149.117188 81.828125 149.46875 80.417969 150.25 79.441406 C 161.523438 82.839844 175.160156 86.324219 190.089844 84.480469 "/>
<g clip-path="url(#clip2)" clip-rule="nonzero">
<path style=" stroke:none;fill-rule:evenodd;fill:rgb(14.498901%,30.198669%,61.999512%);fill-opacity:1;" d="M 299.050781 81.601563 L 299.050781 299.039063 L 0.0117188 299.039063 L 0.0117188 120.960938 C 47.886719 124.070313 221.761719 128.195313 299.050781 81.601563 "/>
</g>
<path style=" stroke:none;fill-rule:evenodd;fill:rgb(100%,100%,100%);fill-opacity:1;" d="M 66.492188 167.039063 C 49.140625 168.894531 40.777344 182.980469 39.851563 201.601563 C 39.117188 216.339844 41.496094 230.777344 50.652344 239.761719 C 57.054688 246.046875 67.648438 249.1875 78.25 245.761719 C 80.296875 245.097656 84.273438 243.769531 85.210938 241.921875 C 85.664063 241.027344 85.898438 239.648438 86.003906 238.027344 L 85.828125 212.898438 C 85.710938 210.386719 84.390625 209.140625 83.289063 208.320313 C 82.503906 207.738281 80.503906 207.175781 78.96875 206.882813 C 77.898438 206.671875 75.398438 206.480469 75.398438 206.480469 L 75.371094 204 L 96.730469 204 C 96.808594 204 96.890625 204 96.96875 204 L 96.96875 243.121094 C 93.011719 246.867188 87.691406 248.746094 82.570313 250.320313 C 63.765625 256.097656 45.105469 250.015625 35.53125 238.082031 C 21.414063 220.484375 23.769531 189.875 37.691406 174 C 46.273438 164.214844 62 158.226563 78.96875 163.441406 C 83.070313 164.699219 88.386719 167.5625 91.449219 163.441406 C 91.683594 163.128906 92.089844 162.382813 92.261719 161.914063 L 95.730469 161.945313 L 95.773438 164.480469 L 95.769531 189.359375 L 93.113281 189.328125 C 92.667969 188.535156 92.449219 187.824219 92.171875 187.199219 C 87.734375 177.332031 83.40625 167.648438 69.371094 167.039063 C 69.371094 167.039063 67.589844 166.929688 66.492188 167.039063 "/>
<path style=" stroke:none;fill-rule:evenodd;fill:rgb(100%,100%,100%);fill-opacity:1;" d="M 121.929688 250.5625 L 105.609375 250.523438 L 105.609375 248.300781 C 105.609375 248.300781 108.726563 247.707031 109.691406 247.441406 C 110.964844 247.085938 113.265625 246.265625 114.25 245.28125 C 117.039063 242.488281 116.890625 233.238281 116.890625 227.519531 L 116.890625 187.199219 C 116.890625 177.394531 117.507813 167.972656 110.652344 166.082031 C 109.285156 165.703125 108.203125 165.453125 106.453125 165.410156 L 106.425781 163 L 128.890625 162.960938 C 137.613281 185.117188 146.847656 206.765625 155.53125 228.960938 C 164.542969 207.175781 172.988281 184.820313 181.929688 162.960938 L 204.972656 162.882813 L 204.980469 165.691406 C 204.980469 165.691406 201.851563 165.847656 200.890625 166.082031 C 196.675781 167.113281 194.699219 169.722656 194.890625 175.679688 L 194.890625 237.839844 C 194.929688 244.195313 195.53125 246.511719 200.339844 247.710938 C 201.890625 248.097656 204.980469 248.652344 204.980469 248.652344 L 204.980469 250.890625 L 182.777344 250.890625 L 182.585938 176.691406 L 153.511719 250.527344 L 151.628906 250.453125 L 121.949219 178.199219 "/>
<path style=" stroke:none;fill-rule:evenodd;fill:rgb(100%,100%,100%);fill-opacity:1;" d="M 274.824219 181.921875 L 271.636719 181.882813 C 271.199219 177.632813 271.136719 173.648438 268.089844 170.882813 C 265.070313 168.132813 260.574219 168.429688 254.984375 168.296875 L 234.863281 168.242188 C 234.863281 168.242188 234.730469 196.484375 234.730469 201.839844 L 252.527344 201.875 C 260.789063 202.136719 262.269531 192.910156 262.402344 191.429688 L 264.539063 191.4375 L 264.492188 217.921875 L 262.136719 217.886719 C 262.035156 212.859375 257.617188 207.359375 252.488281 207.359375 L 234.722656 207.324219 C 234.722656 207.324219 234.730469 219.71875 234.730469 226.800781 C 234.730469 233.445313 234.261719 241.027344 236.171875 244.800781 C 237.828125 248.078125 240.699219 247.6875 245.289063 248.320313 L 245.261719 250.890625 L 212.648438 250.890625 L 212.648438 248.257813 C 217.605469 247.757813 220.3125 246.503906 221.210938 245.191406 C 223.324219 242.089844 222.96875 232.640625 222.96875 226.5625 C 222.96875 213.308594 222.96875 200.476563 222.96875 186.722656 C 222.96875 180.445313 223.628906 172.019531 221.289063 168.722656 C 219.617188 166.355469 215.816406 166.25 212.648438 165.8125 C 212.648438 165.253906 212.660156 163.441406 212.660156 162.882813 L 274.8125 162.960938 "/>
</g>
</svg>
