<?xml version="1.0" encoding="utf-8"?>
<!-- Generator: Adobe Illustrator 16.0.0, SVG Export Plug-In . SVG Version: 6.00 Build 0)  -->
<!DOCTYPE svg PUBLIC "-//W3C//DTD SVG 1.1 Tiny//EN" "http://www.w3.org/Graphics/SVG/1.1/DTD/svg11-tiny.dtd">
<svg version="1.1" baseProfile="tiny" id="Calque_1"
	 xmlns="http://www.w3.org/2000/svg" xmlns:xlink="http://www.w3.org/1999/xlink" x="0px" y="0px" width="132.762px"
	 height="31.561px" viewBox="0 0 132.762 31.561" xml:space="preserve">
<rect x="3.525" y="3.244" fill="#FFFFFF" width="25.211" height="25.206"/>
<rect x="4.112" y="3.833" fill="#EC1A3A" width="24.033" height="12.015"/>
<rect x="4.112" y="15.848" fill="#231F20" width="24.033" height="12.015"/>
<rect x="8.304" y="15.117" fill="#FFFFFF" width="15.634" height="1.459"/>
<path fill="#FFFFFF" d="M44.036,6.519c-1.291-0.55-2.671-0.908-3.902-0.908c-1.799,0-2.697,0.387-2.697,1.081
	c0,1.988,8.019,0.392,8.019,4.629c0,1.756-1.648,3.112-4.947,3.112c-1.959,0-3.488-0.404-5.244-1.356l0.725-1.581
	c1.541,0.855,2.978,1.235,4.533,1.235c1.954,0,3.003-0.565,3.003-1.41c0-2.174-8.021-0.55-8.021-4.521
	c0-1.715,1.635-2.895,4.589-2.895c1.769,0,3.257,0.388,4.679,1.102L44.036,6.519"/>
<path fill="#FFFFFF" d="M52.732,14.484c-3.202,0-5.859-2.132-5.859-5.321c0-3.15,2.657-5.323,5.859-5.323
	c3.221,0,5.835,2.173,5.835,5.323C58.567,12.352,55.953,14.484,52.732,14.484 M52.732,5.555c-2.331,0-3.926,1.581-3.926,3.607
	c0,2.078,1.524,3.62,3.926,3.62c2.388,0,3.903-1.558,3.903-3.62C56.635,7.136,55.12,5.555,52.732,5.555"/>
<path fill="#FFFFFF" d="M66.138,14.473c-3.366,0-5.901-2.132-5.901-5.325c0-3.136,2.576-5.31,5.901-5.31
	c1.984,0,3.407,0.563,4.682,1.502l-0.992,1.475c-0.928-0.712-2.09-1.233-3.635-1.233c-2.456,0-3.981,1.555-3.981,3.566
	c0,2.077,1.541,3.583,4.007,3.583c1.543,0,2.766-0.5,3.688-1.211l0.994,1.479C69.625,13.936,68.122,14.473,66.138,14.473"/>
<rect x="73.177" y="4.146" fill="#FFFFFF" width="1.871" height="10.058"/>
<polyline fill="#FFFFFF" points="78.05,14.204 78.05,4.146 87.208,4.146 87.208,5.809 79.915,5.809 79.915,8.25 85.583,8.25 
	85.583,9.912 79.915,9.912 79.915,12.541 87.53,12.541 87.53,14.204 78.05,14.204 "/>
<polyline fill="#FFFFFF" points="94.489,5.798 94.489,14.204 92.627,14.204 92.627,5.798 88.524,5.798 88.524,4.145 98.583,4.145 
	98.583,5.798 94.489,5.798 "/>
<polyline fill="#FFFFFF" points="100.327,14.204 100.327,4.146 109.485,4.146 109.485,5.809 102.194,5.809 102.194,8.25 
	107.864,8.25 107.864,9.912 102.194,9.912 102.194,12.541 109.807,12.541 109.807,14.204 100.327,14.204 "/>
<path fill="#FFFFFF" d="M41.017,26.107c1.02,0,2.076-0.232,2.869-0.608v-2.922h1.812v3.903c-1.275,0.856-3.029,1.382-4.761,1.382
	c-3.364,0-5.9-2.132-5.9-5.325c0-3.138,2.576-5.307,5.9-5.307c1.946,0,3.406,0.546,4.682,1.485l-0.991,1.479
	c-0.929-0.713-2.096-1.199-3.64-1.199c-2.452-0.049-3.979,1.533-3.979,3.542C37.009,24.617,38.55,26.107,41.017,26.107"/>
<polyline fill="#FFFFFF" points="47.992,27.592 47.992,17.537 57.152,17.537 57.152,19.199 49.853,19.199 49.853,21.64 
	55.527,21.64 55.527,23.301 49.853,23.301 49.853,25.93 57.47,25.93 57.47,27.592 47.992,27.592 "/>
<path fill="#FFFFFF" d="M61.291,27.592h-1.825V17.537h1.904l6.558,7.576l0.046-0.014c-0.111-1.902-0.125-3.445-0.125-4.938v-2.625
	h1.821v10.056h-1.888l-6.536-7.576l-0.026,0.013c0.07,1.488,0.07,4.091,0.07,4.938V27.592"/>
<polyline fill="#FFFFFF" points="72.377,27.592 72.377,17.537 81.532,17.537 81.532,19.199 74.239,19.199 74.239,21.64 
	79.909,21.64 79.909,23.301 74.239,23.301 74.239,25.93 81.856,25.93 81.856,27.592 72.377,27.592 "/>
<path fill="#FFFFFF" d="M88.614,23.892H85.61v3.699h-1.863V17.536h6.461c2.144,0,3.475,1.317,3.475,3.205
	c0,1.796-1.305,2.867-2.886,3.098l2.993,3.753h-2.334L88.614,23.892 M90.008,22.217c1.166,0,1.826-0.605,1.826-1.477
	c0-0.953-0.58-1.543-1.626-1.543H85.61v3.02H90.008z"/>
<path fill="#FFFFFF" d="M97.612,25.151l-1.153,2.441h-2.017l4.898-10.056h1.959l4.904,10.056h-2.01l-1.154-2.441H97.612
	 M98.39,23.519h3.872l-1.931-4.079L98.39,23.519z"/>
<polyline fill="#FFFFFF" points="107.575,27.592 107.575,17.537 109.438,17.537 109.438,25.93 116.155,25.93 116.155,27.592 
	107.575,27.592 "/>
<polyline fill="#FFFFFF" points="117.415,27.592 117.415,17.537 126.575,17.537 126.575,19.199 119.282,19.199 119.282,21.64 
	124.952,21.64 124.952,23.301 119.282,23.301 119.282,25.93 126.896,25.93 126.896,27.592 117.415,27.592 "/>
</svg>
